<svg width="60" height="60" viewBox="0 0 60 60" fill="none" xmlns="http://www.w3.org/2000/svg">
<g clip-path="url(#clip0_184_293)">
<g clip-path="url(#clip1_184_293)">
<path fill-rule="evenodd" clip-rule="evenodd" d="M28.4149 55.212C28.7576 55.7576 29.3576 56.0903 30.0029 56.0903C30.6481 56.0903 31.2481 55.7576 31.5908 55.212C36.6659 47.1203 52.36 22.096 55.9621 16.3523C56.4017 15.6508 56.3294 14.7438 55.7833 14.1202C53.7178 11.7627 48.7627 6.10455 47.0927 4.1976C46.7364 3.79263 46.2222 3.55878 45.6822 3.55878C41.0554 3.55878 18.9504 3.55878 14.3236 3.55878C13.7836 3.55878 13.2694 3.79263 12.9131 4.1976C11.243 6.10455 6.28796 11.7627 4.22244 14.1202C3.67637 14.7438 3.60413 15.6508 4.04369 16.3523C7.64579 22.096 23.3399 47.1203 28.4149 55.212Z" fill="#F6F3EF"/>
<path fill-rule="evenodd" clip-rule="evenodd" d="M3.83826 15.1875H56.1919C56.1156 14.9374 55.9868 14.701 55.8067 14.4947C53.7407 12.1373 48.7819 6.47814 47.1112 4.57093C46.756 4.16448 46.2407 3.93188 45.7004 3.93188C41.0731 3.93188 18.9571 3.93188 14.3298 3.93188C13.7894 3.93188 13.2743 4.16448 12.9191 4.57093C11.2482 6.47814 6.28947 12.1373 4.22344 14.4947C4.04336 14.701 3.91454 14.9374 3.83826 15.1875Z" fill="#FFFFFC"/>
<path fill-rule="evenodd" clip-rule="evenodd" d="M22.5113 15.1875L30.0151 3.93188H14.3297C14.1509 3.93188 13.9746 3.95689 13.8058 4.00692L22.5113 15.1875ZM30.0151 3.93188L37.5188 15.1875L46.2244 4.00692C46.0556 3.95689 45.8792 3.93188 45.7004 3.93188H30.0151Z" fill="#F6F3EF"/>
<path fill-rule="evenodd" clip-rule="evenodd" d="M37.5188 15.1875H22.5114L30.0151 3.93188L37.5188 15.1875Z" fill="#FFFFFC"/>
<path fill-rule="evenodd" clip-rule="evenodd" d="M30.0151 56.4731L22.5114 15.1874H37.5188L30.0151 56.4731Z" fill="#FFFFFC"/>
<path fill-rule="evenodd" clip-rule="evenodd" d="M15.0049 48.9918L16.4857 51.2638L18.7576 52.7445L16.4857 54.2239L15.0049 56.4958L13.5256 54.2239L11.2537 52.7445L13.5256 51.2638L15.0049 48.9918Z" fill="#F6F3EF"/>
<path fill-rule="evenodd" clip-rule="evenodd" d="M7.50498 33.9918L8.98576 36.2638L11.2576 37.7445L8.98576 39.2239L7.50498 41.4958L6.02551 39.2239L3.75366 37.7445L6.02551 36.2638L7.50498 33.9918Z" fill="#F6F3EF"/>
<path fill-rule="evenodd" clip-rule="evenodd" d="M51.2543 40.2413L52.7351 42.5131L55.0069 43.9939L52.7351 45.4734L51.2543 47.7452L49.7748 45.4734L47.503 43.9939L49.7748 42.5131L51.2543 40.2413Z" fill="#F6F3EF"/>
<path d="M23.1338 48.1443C23.8246 48.1443 24.3845 47.5844 24.3845 46.8937C24.3845 46.203 23.8246 45.6431 23.1338 45.6431C22.4431 45.6431 21.8832 46.203 21.8832 46.8937C21.8832 47.5844 22.4431 48.1443 23.1338 48.1443Z" fill="#F4C123"/>
<path fill-rule="evenodd" clip-rule="evenodd" d="M5.339 16.4381H21.4758L28.5131 53.3803L26.317 49.8798C25.9506 49.2946 25.1777 49.1183 24.5936 49.4847C24.0083 49.8511 23.832 50.6239 24.1985 51.208C24.1985 51.208 26.5522 54.9611 27.3662 56.2593C27.9378 57.171 28.9382 57.7237 30.0151 57.7237C31.0919 57.7237 32.0923 57.171 32.6639 56.2593L57.0449 17.3923C57.7789 16.2231 57.6576 14.7097 56.7472 13.6705C54.6811 11.3131 49.7237 5.65399 48.0528 3.74679C47.4588 3.07019 46.6021 2.68127 45.7004 2.68127H14.3298C13.428 2.68127 12.5713 3.07019 11.9773 3.74679C10.3065 5.65399 5.34901 11.3131 3.28297 13.6705C2.37252 14.7097 2.25121 16.2231 2.98532 17.3923L20.0626 44.616C20.4302 45.2013 21.202 45.3775 21.7872 45.0112C22.3712 44.6447 22.5488 43.8719 22.1824 43.2879L5.339 16.4381ZM53.6556 13.9369L46.4658 5.73154L40.0776 13.9369H48.7745C49.4648 13.9369 50.0251 14.4972 50.0251 15.1876C50.0251 15.8778 49.4648 16.4381 48.7745 16.4381H38.5543L31.517 53.3803L54.6912 16.4381H52.5263C51.836 16.4381 51.2758 15.8778 51.2758 15.1876C51.2758 14.4972 51.836 13.9369 52.5263 13.9369H53.6556ZM36.008 16.4381H24.0221L30.0151 47.8989L36.008 16.4381ZM6.37452 13.9369H19.9525L13.5643 5.73154L6.37452 13.9369ZM24.8488 13.9369H35.1814L30.0151 6.18679L24.8488 13.9369ZM43.7232 5.18252H32.3525L37.5977 13.0501L43.7232 5.18252ZM27.6776 5.18252H16.307L22.4326 13.0501L27.6776 5.18252Z" fill="#F4C123"/>
<path fill-rule="evenodd" clip-rule="evenodd" d="M16.0526 48.3088C15.8224 47.9546 15.4288 47.7414 15.0049 47.7414C14.5824 47.7414 14.1889 47.9546 13.9572 48.3088L12.6212 50.3594L10.5705 51.6968C10.2164 51.9271 10.0019 52.3207 10.0019 52.7446C10.0019 53.1671 10.2164 53.5606 10.5705 53.7923L12.6212 55.1282L13.9572 57.179C14.1889 57.533 14.5824 57.7476 15.0049 57.7476C15.4288 57.7476 15.8224 57.533 16.0526 57.179L17.39 55.1282L19.4407 53.7923C19.7948 53.5606 20.008 53.1671 20.008 52.7446C20.008 52.3207 19.7948 51.9271 19.4407 51.6968L17.39 50.3594L16.0526 48.3088ZM15.0049 51.2821L15.438 51.9469C15.5328 52.0916 15.6578 52.2167 15.8026 52.3115L16.4674 52.7446L15.8026 53.1762C15.6578 53.271 15.5328 53.396 15.438 53.5422L15.0049 54.2056L14.5732 53.5422C14.4785 53.396 14.3534 53.271 14.2073 53.1762L13.5439 52.7446L14.2073 52.3115C14.3534 52.2167 14.4785 52.0916 14.5732 51.9469L15.0049 51.2821Z" fill="#F4C123"/>
<path fill-rule="evenodd" clip-rule="evenodd" d="M8.55267 33.3088C8.32233 32.9546 7.92878 32.7414 7.50494 32.7414C7.08243 32.7414 6.68887 32.9546 6.45721 33.3088L5.12121 35.3594L3.0705 36.6968C2.71642 36.9271 2.50188 37.3207 2.50188 37.7446C2.50188 38.1671 2.71642 38.5606 3.0705 38.7923L5.12121 40.1282L6.45721 42.179C6.68887 42.533 7.08243 42.7476 7.50494 42.7476C7.92878 42.7476 8.32233 42.533 8.55267 42.179L9.88999 40.1282L11.9407 38.7923C12.2948 38.5606 12.508 38.1671 12.508 37.7446C12.508 37.3207 12.2948 36.9271 11.9407 36.6968L9.88999 35.3594L8.55267 33.3088ZM7.50494 36.2821L7.93798 36.9469C8.03276 37.0916 8.1578 37.2167 8.30259 37.3115L8.9673 37.7446L8.30259 38.1762C8.1578 38.271 8.03276 38.396 7.93798 38.5422L7.50494 39.2056L7.07322 38.5422C6.97844 38.396 6.8534 38.271 6.7073 38.1762L6.0439 37.7446L6.7073 37.3115C6.8534 37.2167 6.97844 37.0916 7.07322 36.9469L7.50494 36.2821Z" fill="#F4C123"/>
<path fill-rule="evenodd" clip-rule="evenodd" d="M52.3021 39.5581C52.0717 39.204 51.6781 38.9908 51.2543 38.9908C50.8318 38.9908 50.4383 39.204 50.2066 39.5581L48.8706 41.6088L46.8199 42.9461C46.4658 43.1765 46.2513 43.5701 46.2513 43.9939C46.2513 44.4165 46.4658 44.8099 46.8199 45.0417L48.8706 46.3776L50.2066 48.4283C50.4383 48.7824 50.8318 48.997 51.2543 48.997C51.6781 48.997 52.0717 48.7824 52.3021 48.4283L53.6394 46.3776L55.6901 45.0417C56.0442 44.8099 56.2574 44.4165 56.2574 43.9939C56.2574 43.5701 56.0442 43.1765 55.6901 42.9461L53.6394 41.6088L52.3021 39.5581ZM51.2543 42.5315L51.6874 43.1962C51.7822 43.341 51.9072 43.4661 52.0521 43.5609L52.7167 43.9939L52.0521 44.4256C51.9072 44.5204 51.7822 44.6454 51.6874 44.7916L51.2543 45.4549L50.8226 44.7916C50.7278 44.6454 50.6028 44.5204 50.4566 44.4256L49.7933 43.9939L50.4566 43.5609C50.6028 43.4661 50.7278 43.341 50.8226 43.1962L51.2543 42.5315Z" fill="#F4C123"/>
</g>
</g>
<defs>
<clipPath id="clip0_184_293">
<rect width="60" height="60" fill="white"/>
</clipPath>
<clipPath id="clip1_184_293">
<rect width="60" height="60" fill="white"/>
</clipPath>
</defs>
</svg>
