<svg width="20" height="20" viewBox="0 0 20 20" fill="none" xmlns="http://www.w3.org/2000/svg">
<path d="M9.99981 11.1917C10.3412 11.1917 10.6793 11.1244 10.9948 10.9938C11.3102 10.8631 11.5969 10.6716 11.8383 10.4302C12.0797 10.1887 12.2712 9.90212 12.4019 9.58668C12.5326 9.27123 12.5998 8.93314 12.5998 8.5917C12.5998 8.25026 12.5326 7.91217 12.4019 7.59672C12.2712 7.28128 12.0797 6.99465 11.8383 6.75322C11.5969 6.51179 11.3102 6.32027 10.9948 6.18961C10.6793 6.05895 10.3412 5.9917 9.99981 5.9917C9.31025 5.9917 8.64893 6.26563 8.16133 6.75322C7.67374 7.24082 7.39981 7.90214 7.39981 8.5917C7.39981 9.28126 7.67374 9.94258 8.16133 10.4302C8.64893 10.9178 9.31025 11.1917 9.99981 11.1917V11.1917Z" stroke="#6C757D" stroke-width="1.5"/>
<path d="M3.01666 7.07502C4.65832 -0.141644 15.35 -0.133311 16.9833 7.08336C17.9417 11.3167 15.3083 14.9 13 17.1167C12.1934 17.8946 11.1165 18.3293 9.99582 18.3293C8.8752 18.3293 7.79826 17.8946 6.99166 17.1167C4.69166 14.9 2.05832 11.3084 3.01666 7.07502V7.07502Z" stroke="#6C757D" stroke-width="1.5"/>
</svg>
