<svg width="20" height="20" viewBox="0 0 20 20" fill="none" xmlns="http://www.w3.org/2000/svg">
<g clip-path="url(#clip0_11904_7)">
<path d="M15.1166 18.0167C14.3833 18.2333 13.5166 18.3333 12.5 18.3333H7.49997C6.4833 18.3333 5.61663 18.2333 4.8833 18.0167C5.06663 15.85 7.29163 14.1417 9.99997 14.1417C12.7083 14.1417 14.9333 15.85 15.1166 18.0167V18.0167Z" stroke="#6C757D" stroke-width="1.5" stroke-linecap="round" stroke-linejoin="round"/>
<path d="M12.4998 1.66669H7.49984C3.33317 1.66669 1.6665 3.33335 1.6665 7.50002V12.5C1.6665 15.65 2.6165 17.375 4.88317 18.0167C5.0665 15.85 7.2915 14.1417 9.99984 14.1417C12.7082 14.1417 14.9332 15.85 15.1165 18.0167C17.3832 17.375 18.3332 15.65 18.3332 12.5V7.50002C18.3332 3.33335 16.6665 1.66669 12.4998 1.66669ZM9.99984 11.8084C8.34984 11.8084 7.0165 10.4667 7.0165 8.81669C7.0165 7.16669 8.34984 5.83335 9.99984 5.83335C11.6498 5.83335 12.9832 7.16669 12.9832 8.81669C12.9832 10.4667 11.6498 11.8084 9.99984 11.8084Z" stroke="#6C757D" stroke-width="1.5" stroke-linecap="round" stroke-linejoin="round"/>
<path d="M12.9832 8.81671C12.9832 10.4667 11.6498 11.8084 9.99984 11.8084C8.34984 11.8084 7.01651 10.4667 7.01651 8.81671C7.01651 7.16671 8.34984 5.83337 9.99984 5.83337C11.6498 5.83337 12.9832 7.16671 12.9832 8.81671Z" stroke="#6C757D" stroke-width="1.5" stroke-linecap="round" stroke-linejoin="round"/>
</g>
<defs>
<clipPath id="clip0_11904_7">
<rect width="20" height="20" fill="white"/>
</clipPath>
</defs>
</svg>
